<svg width="400" height="409" viewBox="0 0 400 409" fill="none" xmlns="http://www.w3.org/2000/svg">
<rect x="79.6997" y="40.236" width="240.601" height="327.528" rx="9.7668" fill="white"/>
<path d="M285.799 69.5806C178.571 68.0096 106.466 107.961 109.068 236.314L151.574 193.811L140.069 182.307C135.339 177.915 135.339 170.465 140.069 165.735L171.188 134.618L179.653 126.155L186.427 132.929L205.366 113.992C208.069 111.289 212.816 111.289 215.519 113.992C218.222 116.695 218.222 121.442 215.519 124.145L196.581 143.082L211.127 157.289L230.065 138.352C232.768 135.649 237.515 135.649 240.219 138.352C242.922 141.055 242.922 145.801 240.219 148.504L220.942 167.441L227.717 174.215L205.72 196.21L188.133 213.795C183.741 218.525 176.291 218.525 171.56 213.795L162.082 204.319L120.066 246.331C247.618 248.51 287.354 176.496 285.799 69.5806Z" fill="url(#paint0_linear_369_1540)"/>
<path d="M119.621 271.125V294.464H116.795V274.088H116.658L110.96 277.871V274.999L116.795 271.125H119.621ZM133.946 294.783C132.229 294.783 130.766 294.315 129.558 293.381C128.35 292.439 127.427 291.075 126.789 289.29C126.151 287.497 125.832 285.332 125.832 282.794C125.832 280.272 126.151 278.118 126.789 276.333C127.435 274.54 128.362 273.172 129.57 272.23C130.785 271.281 132.244 270.806 133.946 270.806C135.647 270.806 137.102 271.281 138.31 272.23C139.526 273.172 140.453 274.54 141.091 276.333C141.737 278.118 142.059 280.272 142.059 282.794C142.059 285.332 141.74 287.497 141.102 289.29C140.464 291.075 139.541 292.439 138.333 293.381C137.125 294.315 135.663 294.783 133.946 294.783ZM133.946 292.276C135.647 292.276 136.969 291.455 137.911 289.814C138.853 288.173 139.324 285.833 139.324 282.794C139.324 280.773 139.108 279.053 138.675 277.632C138.249 276.211 137.634 275.129 136.829 274.384C136.031 273.639 135.07 273.267 133.946 273.267C132.259 273.267 130.941 274.099 129.991 275.763C129.042 277.419 128.567 279.763 128.567 282.794C128.567 284.815 128.779 286.532 129.205 287.945C129.63 289.358 130.242 290.433 131.04 291.17C131.845 291.907 132.814 292.276 133.946 292.276ZM154.002 294.783C152.285 294.783 150.823 294.315 149.615 293.381C148.407 292.439 147.484 291.075 146.846 289.29C146.208 287.497 145.888 285.332 145.888 282.794C145.888 280.272 146.208 278.118 146.846 276.333C147.492 274.54 148.418 273.172 149.626 272.23C150.842 271.281 152.301 270.806 154.002 270.806C155.704 270.806 157.159 271.281 158.367 272.23C159.583 273.172 160.509 274.54 161.148 276.333C161.793 278.118 162.116 280.272 162.116 282.794C162.116 285.332 161.797 287.497 161.159 289.29C160.521 291.075 159.598 292.439 158.39 293.381C157.182 294.315 155.719 294.783 154.002 294.783ZM154.002 292.276C155.704 292.276 157.026 291.455 157.968 289.814C158.91 288.173 159.381 285.833 159.381 282.794C159.381 280.773 159.165 279.053 158.732 277.632C158.306 276.211 157.691 275.129 156.886 274.384C156.088 273.639 155.127 273.267 154.002 273.267C152.316 273.267 150.998 274.099 150.048 275.763C149.098 277.419 148.624 279.763 148.624 282.794C148.624 284.815 148.836 286.532 149.262 287.945C149.687 289.358 150.299 290.433 151.096 291.17C151.902 291.907 152.87 292.276 154.002 292.276ZM178.344 290.088V288.857C178.344 288.006 178.519 287.227 178.868 286.521C179.225 285.807 179.742 285.237 180.418 284.811C181.102 284.378 181.93 284.162 182.902 284.162C183.89 284.162 184.718 284.378 185.387 284.811C186.055 285.237 186.56 285.807 186.902 286.521C187.244 287.227 187.415 288.006 187.415 288.857V290.088C187.415 290.938 187.24 291.721 186.891 292.435C186.549 293.142 186.04 293.711 185.364 294.144C184.695 294.57 183.875 294.783 182.902 294.783C181.915 294.783 181.083 294.57 180.407 294.144C179.73 293.711 179.218 293.142 178.868 292.435C178.519 291.721 178.344 290.938 178.344 290.088ZM180.669 288.857V290.088C180.669 290.794 180.836 291.428 181.17 291.991C181.504 292.545 182.082 292.823 182.902 292.823C183.7 292.823 184.262 292.545 184.589 291.991C184.923 291.428 185.09 290.794 185.09 290.088V288.857C185.09 288.15 184.931 287.52 184.612 286.965C184.293 286.403 183.723 286.122 182.902 286.122C182.105 286.122 181.531 286.403 181.182 286.965C180.84 287.52 180.669 288.15 180.669 288.857ZM166.72 276.732V275.501C166.72 274.65 166.895 273.871 167.244 273.165C167.601 272.451 168.118 271.881 168.794 271.455C169.478 271.022 170.306 270.806 171.279 270.806C172.266 270.806 173.094 271.022 173.763 271.455C174.431 271.881 174.937 272.451 175.278 273.165C175.62 273.871 175.791 274.65 175.791 275.501V276.732C175.791 277.582 175.617 278.365 175.267 279.079C174.925 279.786 174.416 280.355 173.74 280.789C173.071 281.214 172.251 281.427 171.279 281.427C170.291 281.427 169.459 281.214 168.783 280.789C168.107 280.355 167.594 279.786 167.244 279.079C166.895 278.365 166.72 277.582 166.72 276.732ZM169.045 275.501V276.732C169.045 277.438 169.212 278.072 169.546 278.635C169.881 279.189 170.458 279.467 171.279 279.467C172.076 279.467 172.638 279.189 172.965 278.635C173.299 278.072 173.467 277.438 173.467 276.732V275.501C173.467 274.794 173.307 274.164 172.988 273.609C172.669 273.047 172.099 272.766 171.279 272.766C170.481 272.766 169.907 273.047 169.558 273.609C169.216 274.164 169.045 274.794 169.045 275.501ZM167.586 294.464L183.632 271.125H186.23L170.185 294.464H167.586ZM217.911 278.418C217.66 277.651 217.329 276.963 216.919 276.356C216.516 275.74 216.034 275.216 215.472 274.783C214.917 274.35 214.287 274.019 213.58 273.791C212.874 273.564 212.099 273.45 211.255 273.45C209.873 273.45 208.615 273.807 207.483 274.521C206.351 275.235 205.451 276.287 204.782 277.677C204.114 279.068 203.78 280.773 203.78 282.794C203.78 284.815 204.118 286.521 204.794 287.911C205.47 289.301 206.385 290.353 207.54 291.068C208.695 291.782 209.994 292.139 211.438 292.139C212.775 292.139 213.952 291.854 214.97 291.284C215.996 290.707 216.794 289.894 217.364 288.845C217.941 287.789 218.23 286.547 218.23 285.119L219.096 285.301H212.076V282.794H220.965V285.301C220.965 287.223 220.554 288.895 219.734 290.315C218.921 291.736 217.797 292.838 216.361 293.62C214.932 294.395 213.291 294.783 211.438 294.783C209.371 294.783 207.555 294.296 205.99 293.324C204.433 292.352 203.217 290.969 202.344 289.176C201.478 287.383 201.045 285.256 201.045 282.794C201.045 280.948 201.292 279.288 201.785 277.814C202.287 276.333 202.993 275.072 203.905 274.031C204.817 272.99 205.895 272.192 207.141 271.638C208.387 271.083 209.759 270.806 211.255 270.806C212.486 270.806 213.633 270.992 214.697 271.364C215.768 271.729 216.722 272.249 217.557 272.925C218.401 273.594 219.103 274.395 219.665 275.33C220.228 276.257 220.615 277.286 220.828 278.418H217.911ZM225.44 294.464V276.959H228.039V279.603H228.221C228.54 278.737 229.117 278.035 229.953 277.495C230.789 276.956 231.731 276.686 232.779 276.686C232.977 276.686 233.224 276.69 233.52 276.697C233.816 276.705 234.04 276.716 234.192 276.732V279.467C234.101 279.444 233.892 279.41 233.566 279.364C233.247 279.311 232.908 279.284 232.551 279.284C231.7 279.284 230.941 279.463 230.272 279.82C229.611 280.169 229.087 280.656 228.7 281.279C228.32 281.894 228.13 282.597 228.13 283.387V294.464H225.44ZM244.187 294.828C242.5 294.828 241.045 294.456 239.822 293.711C238.606 292.959 237.668 291.911 237.007 290.566C236.354 289.214 236.027 287.641 236.027 285.848C236.027 284.055 236.354 282.475 237.007 281.108C237.668 279.732 238.587 278.661 239.765 277.894C240.95 277.119 242.333 276.732 243.913 276.732C244.825 276.732 245.725 276.884 246.614 277.187C247.503 277.491 248.312 277.985 249.041 278.669C249.771 279.345 250.352 280.242 250.785 281.358C251.218 282.475 251.434 283.85 251.434 285.484V286.623H237.942V284.298H248.699C248.699 283.311 248.502 282.43 248.107 281.655C247.719 280.88 247.165 280.268 246.443 279.82C245.729 279.372 244.886 279.148 243.913 279.148C242.842 279.148 241.915 279.413 241.132 279.945C240.358 280.469 239.761 281.153 239.343 281.996C238.925 282.84 238.717 283.744 238.717 284.709V286.259C238.717 287.58 238.944 288.701 239.4 289.62C239.864 290.532 240.506 291.227 241.326 291.706C242.147 292.177 243.1 292.412 244.187 292.412C244.893 292.412 245.531 292.314 246.101 292.116C246.678 291.911 247.176 291.607 247.594 291.204C248.012 290.794 248.335 290.285 248.563 289.677L251.161 290.407C250.887 291.288 250.428 292.063 249.782 292.731C249.136 293.392 248.338 293.909 247.389 294.281C246.439 294.646 245.372 294.828 244.187 294.828ZM262.864 294.828C261.178 294.828 259.723 294.456 258.5 293.711C257.284 292.959 256.346 291.911 255.685 290.566C255.032 289.214 254.705 287.641 254.705 285.848C254.705 284.055 255.032 282.475 255.685 281.108C256.346 279.732 257.265 278.661 258.443 277.894C259.628 277.119 261.011 276.732 262.591 276.732C263.503 276.732 264.403 276.884 265.292 277.187C266.181 277.491 266.99 277.985 267.719 278.669C268.448 279.345 269.03 280.242 269.463 281.358C269.896 282.475 270.112 283.85 270.112 285.484V286.623H256.619V284.298H267.377C267.377 283.311 267.18 282.43 266.785 281.655C266.397 280.88 265.843 280.268 265.121 279.82C264.407 279.372 263.563 279.148 262.591 279.148C261.52 279.148 260.593 279.413 259.81 279.945C259.035 280.469 258.439 281.153 258.021 281.996C257.603 282.84 257.394 283.744 257.394 284.709V286.259C257.394 287.58 257.622 288.701 258.078 289.62C258.542 290.532 259.184 291.227 260.004 291.706C260.825 292.177 261.778 292.412 262.864 292.412C263.571 292.412 264.209 292.314 264.779 292.116C265.356 291.911 265.854 291.607 266.272 291.204C266.69 290.794 267.013 290.285 267.24 289.677L269.839 290.407C269.565 291.288 269.106 292.063 268.46 292.731C267.814 293.392 267.016 293.909 266.067 294.281C265.117 294.646 264.05 294.828 262.864 294.828ZM276.893 283.934V294.464H274.203V276.959H276.802V279.695H277.03C277.44 278.806 278.063 278.091 278.898 277.552C279.734 277.005 280.813 276.732 282.135 276.732C283.32 276.732 284.357 276.975 285.246 277.461C286.135 277.94 286.826 278.669 287.32 279.649C287.814 280.621 288.061 281.852 288.061 283.341V294.464H285.371V283.524C285.371 282.148 285.014 281.077 284.3 280.31C283.586 279.535 282.606 279.148 281.36 279.148C280.501 279.148 279.734 279.334 279.058 279.706C278.389 280.078 277.861 280.621 277.474 281.336C277.086 282.05 276.893 282.916 276.893 283.934ZM111.028 331.464V308.125H126.755V312.193H115.963V317.754H125.946V321.823H115.963V327.395H126.8V331.464H111.028ZM135.441 308.125V331.464H130.587V308.125H135.441ZM147.307 331.805C145.507 331.805 143.957 331.441 142.658 330.711C141.366 329.975 140.371 328.934 139.672 327.589C138.973 326.237 138.624 324.637 138.624 322.791C138.624 320.991 138.973 319.411 139.672 318.051C140.371 316.691 141.355 315.631 142.624 314.871C143.9 314.111 145.397 313.732 147.114 313.732C148.268 313.732 149.343 313.918 150.339 314.29C151.341 314.655 152.215 315.205 152.96 315.942C153.712 316.679 154.297 317.606 154.715 318.723C155.132 319.832 155.341 321.131 155.341 322.62V323.954H140.561V320.945H150.772C150.772 320.246 150.62 319.627 150.316 319.088C150.012 318.548 149.59 318.127 149.051 317.823C148.519 317.511 147.9 317.355 147.193 317.355C146.456 317.355 145.803 317.526 145.233 317.868C144.671 318.203 144.23 318.655 143.911 319.224C143.592 319.787 143.429 320.413 143.421 321.105V323.965C143.421 324.831 143.581 325.58 143.9 326.21C144.227 326.841 144.686 327.327 145.279 327.669C145.871 328.011 146.574 328.182 147.387 328.182C147.926 328.182 148.42 328.106 148.869 327.954C149.317 327.802 149.7 327.574 150.02 327.27C150.339 326.966 150.582 326.594 150.749 326.153L155.239 326.449C155.011 327.528 154.544 328.47 153.837 329.276C153.138 330.073 152.234 330.696 151.125 331.144C150.023 331.585 148.751 331.805 147.307 331.805ZM166.418 331.805C164.625 331.805 163.083 331.426 161.791 330.666C160.508 329.899 159.52 328.835 158.829 327.475C158.145 326.115 157.803 324.55 157.803 322.78C157.803 320.987 158.149 319.414 158.84 318.062C159.539 316.702 160.53 315.642 161.814 314.883C163.098 314.115 164.625 313.732 166.395 313.732C167.922 313.732 169.26 314.009 170.407 314.563C171.554 315.118 172.462 315.897 173.13 316.9C173.799 317.902 174.167 319.08 174.236 320.432H169.655C169.525 319.559 169.184 318.856 168.629 318.324C168.082 317.785 167.364 317.515 166.475 317.515C165.723 317.515 165.066 317.72 164.504 318.13C163.949 318.533 163.516 319.122 163.205 319.897C162.893 320.672 162.737 321.61 162.737 322.712C162.737 323.828 162.889 324.778 163.193 325.561C163.505 326.343 163.941 326.939 164.504 327.35C165.066 327.76 165.723 327.965 166.475 327.965C167.03 327.965 167.527 327.851 167.968 327.623C168.416 327.395 168.785 327.065 169.073 326.632C169.37 326.191 169.563 325.663 169.655 325.048H174.236C174.16 326.385 173.795 327.562 173.142 328.58C172.496 329.591 171.603 330.381 170.464 330.951C169.324 331.521 167.976 331.805 166.418 331.805ZM186.654 313.959V317.606H176.113V313.959H186.654ZM178.506 309.766H183.361V326.085C183.361 326.533 183.429 326.882 183.566 327.133C183.703 327.376 183.893 327.547 184.136 327.646C184.387 327.745 184.675 327.794 185.002 327.794C185.23 327.794 185.458 327.775 185.686 327.737C185.914 327.692 186.088 327.657 186.21 327.635L186.974 331.247C186.73 331.323 186.389 331.41 185.948 331.509C185.507 331.616 184.972 331.68 184.341 331.703C183.171 331.748 182.145 331.593 181.264 331.236C180.39 330.879 179.711 330.324 179.224 329.572C178.738 328.82 178.499 327.87 178.506 326.723V309.766ZM189.817 331.464V313.959H194.523V317.014H194.706C195.025 315.927 195.56 315.107 196.312 314.552C197.065 313.99 197.931 313.709 198.911 313.709C199.154 313.709 199.416 313.724 199.697 313.754C199.978 313.785 200.225 313.827 200.438 313.88V318.187C200.21 318.119 199.895 318.058 199.492 318.005C199.089 317.952 198.721 317.925 198.386 317.925C197.672 317.925 197.034 318.081 196.472 318.392C195.917 318.696 195.477 319.122 195.15 319.669C194.831 320.216 194.671 320.846 194.671 321.561V331.464H189.817ZM202.948 331.464V313.959H207.802V331.464H202.948ZM205.386 311.703C204.665 311.703 204.046 311.464 203.529 310.985C203.02 310.499 202.765 309.918 202.765 309.242C202.765 308.573 203.02 307.999 203.529 307.521C204.046 307.035 204.665 306.791 205.386 306.791C206.108 306.791 206.724 307.035 207.233 307.521C207.749 307.999 208.007 308.573 208.007 309.242C208.007 309.918 207.749 310.499 207.233 310.985C206.724 311.464 206.108 311.703 205.386 311.703ZM219.6 331.805C217.807 331.805 216.265 331.426 214.973 330.666C213.689 329.899 212.702 328.835 212.01 327.475C211.327 326.115 210.985 324.55 210.985 322.78C210.985 320.987 211.33 319.414 212.022 318.062C212.721 316.702 213.712 315.642 214.996 314.883C216.28 314.115 217.807 313.732 219.577 313.732C221.104 313.732 222.441 314.009 223.588 314.563C224.736 315.118 225.644 315.897 226.312 316.9C226.981 317.902 227.349 319.08 227.418 320.432H222.836C222.707 319.559 222.365 318.856 221.811 318.324C221.264 317.785 220.546 317.515 219.657 317.515C218.905 317.515 218.248 317.72 217.685 318.13C217.131 318.533 216.698 319.122 216.386 319.897C216.075 320.672 215.919 321.61 215.919 322.712C215.919 323.828 216.071 324.778 216.375 325.561C216.686 326.343 217.123 326.939 217.685 327.35C218.248 327.76 218.905 327.965 219.657 327.965C220.212 327.965 220.709 327.851 221.15 327.623C221.598 327.395 221.966 327.065 222.255 326.632C222.551 326.191 222.745 325.663 222.836 325.048H227.418C227.342 326.385 226.977 327.562 226.324 328.58C225.678 329.591 224.785 330.381 223.645 330.951C222.506 331.521 221.157 331.805 219.6 331.805ZM230.526 331.464V313.959H235.38V331.464H230.526ZM232.964 311.703C232.243 311.703 231.624 311.464 231.107 310.985C230.598 310.499 230.343 309.918 230.343 309.242C230.343 308.573 230.598 307.999 231.107 307.521C231.624 307.035 232.243 306.791 232.964 306.791C233.686 306.791 234.302 307.035 234.811 307.521C235.327 307.999 235.586 308.573 235.586 309.242C235.586 309.918 235.327 310.499 234.811 310.985C234.302 311.464 233.686 311.703 232.964 311.703ZM248.58 313.959V317.606H238.038V313.959H248.58ZM240.432 309.766H245.286V326.085C245.286 326.533 245.355 326.882 245.491 327.133C245.628 327.376 245.818 327.547 246.061 327.646C246.312 327.745 246.601 327.794 246.927 327.794C247.155 327.794 247.383 327.775 247.611 327.737C247.839 327.692 248.014 327.657 248.135 327.635L248.899 331.247C248.656 331.323 248.314 331.41 247.873 331.509C247.432 331.616 246.897 331.68 246.266 331.703C245.096 331.748 244.071 331.593 243.189 331.236C242.316 330.879 241.636 330.324 241.15 329.572C240.663 328.82 240.424 327.87 240.432 326.723V309.766ZM254.739 338.028C254.124 338.028 253.546 337.978 253.007 337.879C252.475 337.788 252.035 337.671 251.685 337.526L252.779 333.902C253.349 334.077 253.862 334.172 254.318 334.187C254.781 334.202 255.18 334.096 255.514 333.868C255.856 333.64 256.133 333.253 256.346 332.706L256.631 331.965L250.352 313.959H255.457L259.081 326.814H259.263L262.921 313.959H268.061L261.258 333.355C260.931 334.297 260.486 335.118 259.924 335.817C259.37 336.523 258.667 337.067 257.816 337.446C256.965 337.834 255.94 338.028 254.739 338.028Z" fill="#383838"/>
<defs>
<linearGradient id="paint0_linear_369_1540" x1="109" y1="157.958" x2="285.843" y2="157.958" gradientUnits="userSpaceOnUse">
<stop stop-color="#188480"/>
<stop offset="1" stop-color="#D0EF93"/>
</linearGradient>
</defs>
</svg>
